PathFileType	4	(X/Y/Z)	C:\Users\°ÂÌØÂü\Desktop\20210112\bx_n_0_902-Unnamed.trc
DataRate	CameraRate	NumFrames	NumMarkers	Units	OrigDataRate	OrigDataStartFrame	OrigNumFrames
50.00	50.00	       9	0	mm	50.00	1	       416
Frame#	Time	
		

1	0.000	-672.85223	119.00475	1852.39917				-689.80121	291.31082	1530.28369	-575.19611	218.14102	788.39233	-577.08301	-6.62648	799.38049	-678.48322	-74.37149	1535.25378	-678.04810	271.89578	741.79132	-690.26563	74.97115	571.40155	-662.64459	17.18288	517.63568	-717.64709	255.22115	641.20343	-718.18036	249.01981	575.73682	-668.50970	203.85385	532.82770	-758.64301	260.67639	502.31790	-517.76135	-72.82873	143.17444	-548.50232	-26.65792	164.57053	-793.48187	39.12936	175.02348	-719.73773	72.74688	216.08206	-600.04480	28.99874	165.82054	-674.44025	55.45604	156.47368	-795.54620	180.31337	184.83609	-764.51141	227.91289	205.86411	-589.20313	207.25394	173.96776	-882.42584	296.01208	144.62569	-552.67590	243.00937	165.94772	-652.36652	291.29459	157.01538	-615.21899	296.89142	158.54965	-528.29199	303.90353	146.45262				-652.12469	-72.99639	871.52649	-752.52856	-46.46629	488.13226	-757.31323	-18.61161	207.36385	-876.01624	-78.73471	141.48239				-673.97980	-63.25899	755.11658	-700.05133	-35.77631	614.08289	-708.64905	-33.09759	567.79010	-714.79254	150.30473	217.07227	-675.65625	165.68622	157.06055	-605.71796	-70.96768	159.41513	-647.66675	-65.39516	164.04900	-573.70306	110.59527	1357.11816										-580.41455	239.73161	1060.59021	-666.22595	286.30823	871.75757				-783.54102	99.34584	1062.30566	-580.83661	-6.80369	1052.25317	
2	0.020	-672.76166	119.01976	1852.39026				-689.59930	291.50595	1530.23706	-575.16608	218.14917	788.30542	-577.08301	-6.62648	799.38049	-678.26746	-74.40576	1535.22095	-678.11743	271.89465	741.57697	-690.38226	74.86544	571.36023	-662.50134	17.25450	517.70605	-717.72913	255.17587	641.01294	-704.07312	262.52213	590.39453	-668.46991	203.73471	532.77673	-758.56488	260.77313	502.30347	-517.78040	-73.04750	143.22989	-548.06616	-26.84380	164.46788	-793.27423	39.09713	174.77812	-719.61884	72.62694	216.22464	-600.30176	29.19520	165.83539	-674.70868	55.22371	156.23238	-795.67761	180.34868	184.88840	-764.36499	227.80252	206.08281	-589.14911	207.16483	173.83243	-882.52344	296.14063	144.63991	-552.60303	242.90059	165.95656	-652.17065	291.44000	157.07121	-615.04510	296.95413	158.44507	-528.17377	303.96555	146.50659				-651.97729	-72.85619	871.52252	-752.70032	-46.60302	488.57098	-757.27618	-18.73891	207.20541	-875.73187	-78.90451	141.55847				-673.80817	-63.47087	755.40796	-700.05157	-35.79400	614.06195	-708.49176	-32.98610	567.75189	-714.65393	150.38359	217.37450	-675.57159	165.68390	157.52985	-605.65924	-70.97596	159.49355	-647.45209	-65.23746	163.90364	-573.53241	110.66077	1357.17957										-580.34277	239.81734	1060.59155	-666.22595	286.30823	871.75757				-783.54102	99.34584	1062.30566	-580.77838	-6.73096	1052.31824	
3	0.040	-672.23431	119.06442	1852.20544				-689.25616	291.55466	1530.22766	-575.16608	218.14917	788.30542	-577.08301	-6.62648	799.38049	-678.21960	-74.34206	1535.18054	-677.83948	271.93030	741.78491	-690.04193	74.86192	571.30457	-662.50134	17.25450	517.70605	-717.55524	255.18250	641.14923	-704.07312	262.52213	590.39453	-668.39655	203.86644	532.65765	-758.43646	260.85541	501.99496	-517.74225	-73.15008	143.34764	-548.38776	-26.64746	164.64473	-793.20081	39.02473	174.73351	-719.83575	72.68699	216.20793	-600.30176	29.19520	165.83539	-674.59143	55.40766	156.53683	-795.71301	180.37711	184.93390	-764.58722	227.80193	205.86388	-589.14819	207.21347	173.83905	-882.51794	296.10651	144.56905	-552.43311	242.87680	166.16237	-652.17065	291.44000	157.07121	-615.22253	297.07150	158.57806	-528.27039	304.15359	146.45328				-652.13507	-72.93172	871.51263	-752.60870	-46.51289	488.34555	-757.39886	-18.54415	207.16557	-875.71326	-78.92544	141.33623				-673.82819	-63.39602	755.36169	-699.93884	-35.87001	614.15076	-708.67456	-32.86123	567.58575	-714.49353	150.30205	217.32881	-675.47968	165.86617	157.23630	-605.79785	-71.01772	159.49997	-647.59320	-65.35880	164.01068	-573.25159	110.57222	1357.13647										-580.27045	239.95253	1060.63550	-666.20166	285.97073	871.62177				-783.41632	99.48714	1062.43213	-580.68665	-6.66734	1052.34412	
4	0.060	-671.90173	119.20538	1852.19067				-688.69879	291.68991	1530.36560	-575.16608	218.14917	788.30542	-576.91534	-6.51475	799.41699	-677.96741	-74.32034	1535.17493	-678.00714	271.80386	741.56799	-690.26563	74.97115	571.40155	-662.46216	17.27444	517.75562	-717.59021	255.31525	641.23602	-718.10541	248.98596	575.53375	-668.25574	203.97256	532.72119	-758.42310	260.78757	502.12558	-517.70892	-72.91471	143.28874	-548.43842	-26.57866	164.57344	-793.52075	39.11414	175.21518	-719.71851	72.58206	216.32813	-600.16992	29.11972	165.76787	-674.62311	55.19033	156.48294	-795.64771	180.31931	184.96100	-764.42871	227.68727	205.91129	-588.99829	207.10831	173.82741	-882.38171	296.15680	144.80455	-552.61578	243.03540	166.04715	-652.45123	291.46823	157.21196	-615.14783	297.01553	158.50366	-528.29932	304.12570	146.47157				-651.97729	-72.85619	871.52252	-752.55957	-46.33195	488.28311	-757.43127	-18.82845	207.44427	-876.09662	-78.84725	141.46336				-673.82819	-63.39602	755.36169	-699.99866	-35.59634	613.84009	-708.35498	-32.89973	567.70850	-714.52216	150.36859	217.25801	-675.43225	165.77403	157.25008	-605.79785	-71.01772	159.49997	-647.67682	-65.38651	164.08926	-572.90393	110.71454	1357.21973										-580.16064	239.85046	1060.62598	-666.17377	286.02289	871.51050				-783.01477	99.57144	1062.18811	-580.68665	-6.66734	1052.34412	
5	0.080	-671.23877	119.08440	1852.26331				-688.44348	291.64926	1530.17017	-575.08813	218.12408	788.04968	-576.91534	-6.51475	799.41699	-677.50262	-74.28579	1535.23914	-678.00714	271.80386	741.56799	-690.26563	74.97115	571.40155	-662.50159	17.32022	517.84448	-717.51794	254.93651	641.14154	-718.03143	248.77036	575.43170	-668.28357	203.95193	532.69446	-758.43579	260.78516	502.06226	-517.70892	-72.91471	143.28874	-548.50232	-26.65792	164.57053	-793.36584	39.39862	174.67186	-719.83575	72.68699	216.20793	-600.21765	29.24705	165.87114	-674.88629	55.35103	156.27008	-795.69080	180.29494	184.84926	-764.53607	227.62216	205.94272	-589.07965	207.16917	173.92159	-882.53674	296.03525	144.54535	-552.63715	242.92882	165.93663	-652.34277	291.43591	157.19939	-615.05103	297.02295	158.63116	-528.18390	304.18793	146.52794				-651.88983	-72.85007	871.42645	-752.62299	-46.39242	488.38901	-757.39160	-18.67279	207.18562	-876.07831	-78.80435	141.53267				-673.82819	-63.39602	755.36169	-700.06494	-35.78910	614.04651	-708.46143	-32.82570	567.62646	-714.65393	150.38359	217.37450	-675.58868	165.97699	157.14900	-605.80811	-70.89630	159.36530	-647.62311	-65.28407	164.00249	-572.72485	110.75480	1357.03003										-580.02075	239.90733	1060.47803	-666.03363	285.95441	871.43561				-782.97589	99.69583	1062.32910	-580.60437	-6.69792	1052.28613	
6	0.100	-670.99750	119.31524	1852.29846				-687.91144	292.07388	1530.29358	-575.18976	218.13733	788.05847	-576.86176	-6.63366	799.48804	-677.21326	-74.45545	1535.04114	-677.51880	272.08398	741.89020	-690.26563	74.97115	571.40155	-662.41199	17.34619	517.78412	-717.35876	255.08012	641.21289	-704.07312	262.52213	590.39453	-668.37897	203.94936	532.71716	-758.42474	260.72583	502.22079	-517.70892	-72.91471	143.28874	-548.12006	-26.70118	164.58907	-793.28064	39.39816	174.74001	-719.71246	72.60607	216.06628	-600.27087	29.03418	165.65935	-674.63086	55.24474	156.44344	-795.69635	180.23909	185.08385	-764.49139	227.77426	205.79811	-589.07330	206.98621	173.78899	-882.44019	296.05743	144.65327	-552.67590	243.00937	165.94772	-652.41663	291.42764	157.30051	-615.05157	297.15002	158.78841	-528.18341	304.11401	146.55998				-651.96240	-72.82446	871.57727	-752.42700	-46.24823	488.26443	-757.37854	-18.57558	207.25920	-876.03687	-78.90970	141.42259				-673.89832	-63.47127	755.51556	-699.93884	-35.87001	614.15076	-708.40729	-32.82354	567.71399	-714.77557	150.42043	217.23256	-675.53082	165.87137	157.16948	-605.79785	-71.01772	159.49997	-647.57892	-65.21461	163.86328	-572.53790	110.68680	1357.09705										-579.85535	239.81960	1060.39465	-666.03363	285.95441	871.43561				-782.77039	99.83067	1062.18066	-580.44202	-6.54073	1052.20142	
7	0.120	-670.70831	119.38318	1852.34229				-687.82501	291.85110	1530.23938	-575.08813	218.12408	788.04968	-576.91534	-6.51475	799.41699	-676.93427	-74.30410	1535.02209	-677.66064	271.98291	741.70038	-690.04193	74.86192	571.30457	-662.63354	17.40906	517.64136	-717.49683	254.94565	640.99255	-718.03143	248.77036	575.43170	-668.25574	203.97256	532.72119	-758.43579	260.78516	502.06226	-517.64667	-73.08523	143.47894	-548.17798	-26.78744	164.48203	-793.19165	38.95839	174.82530	-719.73773	72.74688	216.08206	-599.98492	29.01716	165.90770	-674.74915	55.55207	156.56612	-795.82538	180.40947	184.81129	-764.50220	227.89133	206.03468	-588.98022	207.16869	173.89648	-882.55939	296.06055	144.58881	-552.55566	243.06142	166.14658	-652.24738	291.40533	157.13847	-615.14783	297.01553	158.50366	-528.18390	304.18793	146.52794				-651.95465	-72.74121	871.34845	-752.33154	-46.19717	488.22049	-757.43091	-18.76272	207.30746	-876.03687	-78.90970	141.42259				-673.75146	-63.31705	755.27179	-699.86761	-35.99432	614.24060	-708.35498	-32.89973	567.70850	-714.64380	150.40544	217.11606	-675.61908	165.77602	157.51607	-605.73920	-71.02599	159.57840	-647.40631	-65.16592	163.84796	-572.45502	110.76270	1357.16675										-579.85535	239.81960	1060.39465	-665.99072	285.87979	871.20709				-782.80536	99.73843	1062.33838	-580.44202	-6.54073	1052.20142	
8	0.140	-670.20007	119.40174	1852.32263	-718.03143	248.77036	575.43170	-687.69000	291.83142	1530.30347	-575.08813	218.12408	788.04968	-576.84326	-6.63545	799.46210	-676.54468	-74.19164	1535.06543	-677.64661	272.15720	741.94580				-662.50134	17.25450	517.70605	-717.46173	255.21843	641.20160				-668.28357	203.95193	532.69446	-758.40265	260.85248	502.06967	-517.70892	-72.91471	143.28874	-548.17914	-26.61912	164.58073	-793.68500	39.44236	175.02261	-719.71246	72.60607	216.06628	-600.34412	29.17911	165.91573	-674.87244	55.48828	156.45145	-795.77783	180.45337	184.90784	-764.39319	227.74686	206.00266	-589.07190	207.08133	173.89626	-882.49438	296.18552	144.70300	-552.56714	242.94937	166.04488	-652.18860	291.28082	157.20894	-615.10229	297.15173	158.87167	-528.25397	304.25998	146.65234				-651.66925	-72.72370	871.40631	-752.47937	-46.21071	488.19000	-757.43091	-18.76272	207.30746	-875.95648	-78.79716	141.44162				-673.63159	-63.24084	755.21759	-699.90955	-35.72130	613.97015	-708.37329	-32.89465	567.70819	-714.77557	150.42043	217.23256	-675.44464	165.66721	157.12778	-605.80811	-70.89630	159.36530	-647.62311	-65.28407	164.00249	-572.16168	110.72054	1357.12817										-579.84918	239.93732	1060.38977	-665.99072	285.87979	871.20709				-782.55353	99.74147	1062.18604	-580.44202	-6.54073	1052.20142	
9	0.160	-669.70612	119.29335	1852.26331	-718.03143	248.77036	575.43170	-687.46082	291.82532	1530.35229	-575.08813	218.12408	788.04968	-576.73096	-6.33129	799.10608	-676.39404	-74.15286	1535.08765	-677.64661	272.15720	741.94580	-690.04193	74.86192	571.30457	-662.50159	17.32022	517.84448	-717.32135	255.05974	641.28314				-668.29681	203.98018	532.50378	-758.33295	260.84619	502.12500	-517.70892	-72.91471	143.28874	-548.35193	-26.61775	164.66293	-793.63171	39.43016	175.10931	-719.83575	72.68699	216.20793	-600.30176	29.19520	165.83539	-674.88629	55.35103	156.27008	-795.63495	180.38460	185.04362	-764.49622	227.88062	205.85120	-589.08350	207.14084	173.89941	-882.71075	296.18878	144.79744	-552.67590	243.00937	165.94772	-652.24738	291.40533	157.13847	-615.14783	297.01553	158.50366	-528.20642	304.25778	146.63400				-651.75275	-72.69453	871.30560	-752.42151	-46.26227	488.37778	-757.38635	-18.53834	207.36790	-876.04169	-78.95963	141.37299				-673.56860	-63.34684	755.10822	-699.79144	-35.63090	613.92786	-708.40948	-32.84267	567.71112	-714.51050	150.18636	217.16852	-675.43225	165.77403	157.25008	-605.79785	-71.01772	159.49997	-647.62311	-65.28407	164.00249	-571.99323	110.66972	1356.97900										-579.50586	239.80261	1060.07544	-665.99072	285.87979	871.20709				-782.40778	99.93206	1062.18140	-580.39349	-6.36177	1051.96204	
